# xmcd CD database file
#
# Track frame offsets:
#	150
#	44285
#	59400
#	103745
#	128012
#	172517
#	199052
#
# Disc length: 3331 seconds
#
# Revision: 0
# Processed by: cddbd v1.5.1PL2 Copyright (c) Steve Scherf et al.
# Submitted via: CDex 1.51
#
DISCID=550d0107
DTITLE=Lindsey Horner - Believers
DYEAR=1997
DGENRE=Jazz
TTITLE0=Avril
TTITLE1=Breather
TTITLE2=Altadena
TTITLE3=Knowing
TTITLE4=Over The Water
TTITLE5=Keith Richards
TTITLE6=Shades
EXTD=YEAR: 1997
EXTT0=
EXTT1=
EXTT2=
EXTT3=
EXTT4=
EXTT5=
EXTT6=
PLAYORDER=
